<?xml version="1.0" standalone="no"?>
<!DOCTYPE svg PUBLIC "-//W3C//DTD SVG 20010904//EN"
 "http://www.w3.org/TR/2001/REC-SVG-20010904/DTD/svg10.dtd">
<svg version="1.0" xmlns="http://www.w3.org/2000/svg"
 width="700.000000pt" height="700.000000pt" viewBox="0 0 700.000000 700.000000"
 preserveAspectRatio="xMidYMid meet">
<metadata>
Created by potrace 1.14, written by Peter Selinger 2001-2017
</metadata>
<g transform="translate(0.000000,700.000000) scale(0.100000,-0.100000)"
fill="#000000" stroke="none">
<path d="M3818 5433 c-296 -49 -494 -251 -563 -571 -12 -56 -14 -273 -15
-1337 0 -698 -3 -1283 -6 -1300 -20 -109 -76 -155 -189 -155 -116 0 -158 36
-191 163 -1 4 -2 670 -3 1480 l-1 1473 -258 -1 -259 0 2 -1505 c1 -828 5
-1518 9 -1535 46 -202 119 -337 236 -435 56 -47 179 -114 235 -129 82 -21 103
-24 215 -27 374 -11 640 205 715 581 12 58 14 297 15 1345 0 819 4 1288 10
1311 14 51 51 102 85 118 16 8 59 14 95 15 90 1 136 -23 170 -89 l25 -49 3
-1486 2 -1485 258 0 257 0 0 1505 -1 1505 -23 89 c-36 137 -91 236 -187 332
-65 66 -96 89 -165 122 -149 71 -308 93 -471 65z"/>
<path d="M1428 5170 c-3 -13 -2 -3298 1 -3340 1 -14 33 -16 258 -15 l258 0 0
1679 c0 1110 -3 1680 -10 1684 -5 4 -121 7 -257 7 -213 0 -247 -2 -250 -15z"/>
<path d="M5062 5180 c-4 -3 -8 -761 -7 -1685 l0 -1680 250 -1 c138 0 255 3
260 7 7 5 10 578 10 1686 l0 1678 -253 0 c-139 0 -256 -2 -260 -5z"/>
</g>
</svg>
